<svg width="40" height="40" viewBox="0 0 40 40" fill="none" xmlns="http://www.w3.org/2000/svg">
    <circle cx="20" cy="20" r="20" fill="url(#paint0_linear_45_900)"/>
    <path d="M20 15.5H27C27.5304 15.5 28.0391 15.7371 28.4142 16.159C28.7893 16.581 29 17.1533 29 17.75V26.75C29 27.3467 28.7893 27.919 28.4142 28.341C28.0391 28.7629 27.5304 29 27 29H13C12.4696 29 11.9609 28.7629 11.5858 28.341C11.2107 27.919 11 27.3467 11 26.75V17.75C11 17.1533 11.2107 16.581 11.5858 16.159C11.9609 15.7371 12.4696 15.5 13 15.5H20ZM20 15.5L16 11M20 15.5L24 11" stroke="white" stroke-width="2" stroke-linecap="round" stroke-linejoin="round"/>
    <defs>
        <linearGradient id="paint0_linear_45_900" x1="20" y1="0" x2="20" y2="40" gradientUnits="userSpaceOnUse">
            <stop stop-color="#226DFF"/>
            <stop offset="1" stop-color="#D458FF"/>
        </linearGradient>
    </defs>
</svg>
