<svg width="20" height="20" viewBox="0 0 20 20" fill="none" xmlns="http://www.w3.org/2000/svg">
    <path d="M10 5.5H17C17.5304 5.5 18.0391 5.73705 18.4142 6.15901C18.7893 6.58097 19 7.15326 19 7.75V16.75C19 17.3467 18.7893 17.919 18.4142 18.341C18.0391 18.7629 17.5304 19 17 19H3C2.46957 19 1.96086 18.7629 1.58579 18.341C1.21071 17.919 1 17.3467 1 16.75V7.75C1 7.15326 1.21071 6.58097 1.58579 6.15901C1.96086 5.73705 2.46957 5.5 3 5.5H10ZM10 5.5L6 1M10 5.5L14 1" stroke="black" stroke-width="1.5" stroke-linecap="round" stroke-linejoin="round"/>
</svg>
