<svg width="22" height="22" viewBox="0 0 22 22" fill="none" xmlns="http://www.w3.org/2000/svg">
    <path d="M6.6 16.5V19.8H15.4V12.1H6.6V16.5ZM4.4 14.3V12.1H2.2V9.9H4.4V7.7H2.2V14.3H4.4ZM4.4 16.5H2.2V17.6C2.2 18.1835 2.43179 18.7431 2.84437 19.1556C3.25695 19.5682 3.81652 19.8 4.4 19.8V16.5ZM19.8 14.3V7.7H17.6V9.9H19.8V12.1H17.6V14.3H19.8ZM19.8 16.5H17.6V19.8C18.1835 19.8 18.7431 19.5682 19.1556 19.1556C19.5682 18.7431 19.8 18.1835 19.8 17.6V16.5ZM15.4 7.7V2.2H6.6V9.9H15.4V7.7ZM19.8 5.5V4.4C19.8 3.81652 19.5682 3.25695 19.1556 2.84437C18.7431 2.43179 18.1835 2.2 17.6 2.2V5.5H19.8ZM4.4 5.5V2.2C3.81652 2.2 3.25695 2.43179 2.84437 2.84437C2.43179 3.25695 2.2 3.81652 2.2 4.4V5.5H4.4ZM4.4 0H17.6C18.767 0 19.8861 0.46357 20.7113 1.28873C21.5364 2.11389 22 3.23305 22 4.4V17.6C22 18.767 21.5364 19.8861 20.7113 20.7113C19.8861 21.5364 18.767 22 17.6 22H4.4C3.23305 22 2.11389 21.5364 1.28873 20.7113C0.46357 19.8861 0 18.767 0 17.6V4.4C0 3.23305 0.46357 2.11389 1.28873 1.28873C2.11389 0.46357 3.23305 0 4.4 0Z" fill="url(#paint0_linear_119_506)"/>
    <defs>
        <linearGradient id="paint0_linear_119_506" x1="11" y1="0" x2="11" y2="22" gradientUnits="userSpaceOnUse">
            <stop stop-color="#226DFF"/>
            <stop offset="1" stop-color="#D458FF"/>
        </linearGradient>
    </defs>
</svg>
