<svg width="26" height="24" viewBox="0 0 26 24" fill="none" xmlns="http://www.w3.org/2000/svg">
    <mask id="path-1-outside-1_119_793" maskUnits="userSpaceOnUse" x="0" y="0" width="26" height="24" fill="black">
        <rect fill="white" width="26" height="24"/>
        <path fill-rule="evenodd" clip-rule="evenodd" d="M10.0281 1H22.8181C23.4036 1.0197 23.9585 1.26832 24.3657 1.69331C24.7728 2.1183 25.0002 2.68636 24.9999 3.27746V16.8815C24.9995 17.0245 24.959 17.1646 24.8832 17.2855C24.8073 17.4064 24.6991 17.5032 24.5711 17.5647C24.4495 17.6191 24.3159 17.64 24.1837 17.6254C24.0516 17.6107 23.9256 17.5609 23.8187 17.4812L20.2225 14.6647H10.0281C9.42952 14.6647 8.85542 14.4248 8.43215 13.9977C8.00887 13.5706 7.77107 12.9913 7.77107 12.3873V3.27746C7.77107 2.67344 8.00887 2.09416 8.43215 1.66705C8.85542 1.23995 9.42952 1 10.0281 1ZM20.9372 13.3059L23.5704 15.3783V3.323C23.5639 3.11935 23.4838 2.92513 23.3453 2.77691C23.2067 2.6287 23.0192 2.53672 22.8181 2.5183H10.0281C9.82859 2.5183 9.63722 2.59829 9.49613 2.74065C9.35504 2.88302 9.27577 3.07612 9.27577 3.27746V12.3873C9.27577 12.5886 9.35504 12.7817 9.49613 12.9241C9.63722 13.0665 9.82859 13.1464 10.0281 13.1464H20.4783C20.6445 13.147 20.8059 13.203 20.9372 13.3059ZM16.579 18.2381C16.7201 18.0957 16.7994 17.9026 16.7994 17.7012V16.9421H18.3041V17.7999C18.3145 18.0876 18.2663 18.3743 18.1624 18.6424C18.0585 18.9105 17.9012 19.1543 17.7002 19.3585C17.4992 19.5628 17.2588 19.7232 16.9938 19.8299C16.7289 19.9366 16.445 19.9872 16.1599 19.9787H6.04828L2.17367 22.8559C2.06606 22.9344 1.93977 22.9828 1.80763 22.9961C1.67549 23.0095 1.5422 22.9873 1.42132 22.9318C1.29584 22.8698 1.18996 22.7737 1.11554 22.6544C1.04113 22.535 1.00112 22.3971 1 22.2562V8.59143C1 7.98741 1.2378 7.40813 1.66108 6.98102C2.08436 6.55392 2.65845 6.31397 3.25705 6.31397H6.16113V7.83227H3.25705C3.05752 7.83227 2.86615 7.91226 2.72506 8.05462C2.58397 8.19699 2.5047 8.39009 2.5047 8.59143V20.7379L5.05517 18.7109C5.08012 18.6927 5.10582 18.6728 5.13221 18.6523C5.24905 18.5615 5.37908 18.4604 5.51411 18.4604H16.047C16.2466 18.4604 16.4379 18.3804 16.579 18.2381Z"/>
    </mask>
    <path fill-rule="evenodd" clip-rule="evenodd" d="M10.0281 1H22.8181C23.4036 1.0197 23.9585 1.26832 24.3657 1.69331C24.7728 2.1183 25.0002 2.68636 24.9999 3.27746V16.8815C24.9995 17.0245 24.959 17.1646 24.8832 17.2855C24.8073 17.4064 24.6991 17.5032 24.5711 17.5647C24.4495 17.6191 24.3159 17.64 24.1837 17.6254C24.0516 17.6107 23.9256 17.5609 23.8187 17.4812L20.2225 14.6647H10.0281C9.42952 14.6647 8.85542 14.4248 8.43215 13.9977C8.00887 13.5706 7.77107 12.9913 7.77107 12.3873V3.27746C7.77107 2.67344 8.00887 2.09416 8.43215 1.66705C8.85542 1.23995 9.42952 1 10.0281 1ZM20.9372 13.3059L23.5704 15.3783V3.323C23.5639 3.11935 23.4838 2.92513 23.3453 2.77691C23.2067 2.6287 23.0192 2.53672 22.8181 2.5183H10.0281C9.82859 2.5183 9.63722 2.59829 9.49613 2.74065C9.35504 2.88302 9.27577 3.07612 9.27577 3.27746V12.3873C9.27577 12.5886 9.35504 12.7817 9.49613 12.9241C9.63722 13.0665 9.82859 13.1464 10.0281 13.1464H20.4783C20.6445 13.147 20.8059 13.203 20.9372 13.3059ZM16.579 18.2381C16.7201 18.0957 16.7994 17.9026 16.7994 17.7012V16.9421H18.3041V17.7999C18.3145 18.0876 18.2663 18.3743 18.1624 18.6424C18.0585 18.9105 17.9012 19.1543 17.7002 19.3585C17.4992 19.5628 17.2588 19.7232 16.9938 19.8299C16.7289 19.9366 16.445 19.9872 16.1599 19.9787H6.04828L2.17367 22.8559C2.06606 22.9344 1.93977 22.9828 1.80763 22.9961C1.67549 23.0095 1.5422 22.9873 1.42132 22.9318C1.29584 22.8698 1.18996 22.7737 1.11554 22.6544C1.04113 22.535 1.00112 22.3971 1 22.2562V8.59143C1 7.98741 1.2378 7.40813 1.66108 6.98102C2.08436 6.55392 2.65845 6.31397 3.25705 6.31397H6.16113V7.83227H3.25705C3.05752 7.83227 2.86615 7.91226 2.72506 8.05462C2.58397 8.19699 2.5047 8.39009 2.5047 8.59143V20.7379L5.05517 18.7109C5.08012 18.6927 5.10582 18.6728 5.13221 18.6523C5.24905 18.5615 5.37908 18.4604 5.51411 18.4604H16.047C16.2466 18.4604 16.4379 18.3804 16.579 18.2381Z" fill="url(#paint0_linear_119_793)"/>
    <path d="M22.8181 1L22.8349 0.500283L22.8265 0.5H22.8181V1ZM24.9999 3.27746L24.4999 3.27718V3.27746H24.9999ZM24.9999 16.8815L25.4999 16.8829V16.8815H24.9999ZM24.8832 17.2855L25.3067 17.5513L25.3067 17.5513L24.8832 17.2855ZM24.5711 17.5647L24.7754 18.0212L24.7877 18.0154L24.5711 17.5647ZM24.1837 17.6254L24.2389 17.1284H24.2389L24.1837 17.6254ZM23.8187 17.4812L23.5103 17.8749L23.5197 17.882L23.8187 17.4812ZM20.2225 14.6647L20.5308 14.2711L20.395 14.1647H20.2225V14.6647ZM8.43215 13.9977L8.077 14.3496L8.43215 13.9977ZM8.43215 1.66705L8.077 1.31509V1.31509L8.43215 1.66705ZM23.5704 15.3783L23.2612 15.7712L24.0704 16.4082V15.3783H23.5704ZM20.9372 13.3059L21.2465 12.9129L21.2455 12.9122L20.9372 13.3059ZM23.5704 3.323H24.0704V3.31501L24.0702 3.30701L23.5704 3.323ZM23.3453 2.77691L22.98 3.11839V3.11839L23.3453 2.77691ZM22.8181 2.5183L22.8637 2.02039L22.8409 2.0183H22.8181V2.5183ZM9.49613 12.9241L9.85127 12.5721L9.85127 12.5721L9.49613 12.9241ZM20.4783 13.1464L20.4799 12.6464H20.4783V13.1464ZM16.579 18.2381L16.9342 18.59L16.9342 18.59L16.579 18.2381ZM16.7994 16.9421V16.4421H16.2994V16.9421H16.7994ZM18.3041 16.9421H18.8041V16.4421H18.3041V16.9421ZM18.3041 17.7999H17.8041V17.809L17.8044 17.818L18.3041 17.7999ZM18.1624 18.6424L18.6286 18.8231L18.6286 18.8231L18.1624 18.6424ZM17.7002 19.3585L18.0566 19.7092L18.0566 19.7092L17.7002 19.3585ZM16.9938 19.8299L16.8071 19.3661H16.8071L16.9938 19.8299ZM16.1599 19.9787L16.1748 19.4789L16.1673 19.4787H16.1599V19.9787ZM6.04828 19.9787V19.4787H5.88293L5.75019 19.5773L6.04828 19.9787ZM2.17367 22.8559L2.46842 23.2598L2.47176 23.2573L2.17367 22.8559ZM1.42132 22.9318L1.19973 23.38L1.20621 23.3832L1.21279 23.3862L1.42132 22.9318ZM1.11554 22.6544L1.53981 22.3898L1.53981 22.3898L1.11554 22.6544ZM1 22.2562H0.499984L0.500016 22.2601L1 22.2562ZM1.66108 6.98102L1.30594 6.62906H1.30594L1.66108 6.98102ZM6.16113 6.31397H6.66113V5.81397H6.16113V6.31397ZM6.16113 7.83227V8.33227H6.66113V7.83227H6.16113ZM2.72506 8.05462L3.0802 8.40658L3.0802 8.40658L2.72506 8.05462ZM2.5047 20.7379H2.0047V21.7739L2.81579 21.1293L2.5047 20.7379ZM5.05517 18.7109L4.7607 18.3068L4.75226 18.313L4.74408 18.3195L5.05517 18.7109ZM5.13221 18.6523L4.82539 18.2575L4.82538 18.2575L5.13221 18.6523ZM22.8181 0.5H10.0281V1.5H22.8181V0.5ZM24.7267 1.34742C24.2298 0.82869 23.5515 0.524398 22.8349 0.500283L22.8013 1.49972C23.2556 1.51501 23.6873 1.70795 24.0046 2.0392L24.7267 1.34742ZM25.4999 3.27773C25.5003 2.55827 25.2235 1.866 24.7267 1.34742L24.0046 2.0392C24.3221 2.37059 24.5002 2.81446 24.4999 3.27718L25.4999 3.27773ZM25.4999 16.8815V3.27746H24.4999V16.8815H25.4999ZM25.3067 17.5513C25.4324 17.351 25.4992 17.1193 25.4999 16.8829L24.4999 16.8801C24.4998 16.9298 24.4857 16.9783 24.4597 17.0197L25.3067 17.5513ZM24.7877 18.0154C25.0011 17.9128 25.1809 17.7517 25.3067 17.5513L24.4597 17.0197C24.4337 17.0611 24.3971 17.0936 24.3545 17.114L24.7877 18.0154ZM24.1286 18.1223C24.3494 18.1468 24.5726 18.1118 24.7753 18.0211L24.3668 17.1083C24.3265 17.1264 24.2824 17.1332 24.2389 17.1284L24.1286 18.1223ZM23.5197 17.882C23.6977 18.0147 23.9077 18.0978 24.1286 18.1223L24.2389 17.1284C24.1954 17.1236 24.1536 17.1072 24.1177 17.0804L23.5197 17.882ZM19.9142 15.0584L23.5104 17.8748L24.127 17.0875L20.5308 14.2711L19.9142 15.0584ZM10.0281 15.1647H20.2225V14.1647H10.0281V15.1647ZM8.077 14.3496C8.5937 14.871 9.29545 15.1647 10.0281 15.1647V14.1647C9.56358 14.1647 9.11715 13.9786 8.78729 13.6457L8.077 14.3496ZM7.27107 12.3873C7.27107 13.1225 7.56046 13.8284 8.077 14.3496L8.78729 13.6457C8.45727 13.3127 8.27107 12.8601 8.27107 12.3873H7.27107ZM7.27107 3.27746V12.3873H8.27107V3.27746H7.27107ZM8.077 1.31509C7.56046 1.83631 7.27107 2.54227 7.27107 3.27746H8.27107C8.27107 2.8046 8.45727 2.35201 8.78729 2.01901L8.077 1.31509ZM10.0281 0.5C9.29545 0.5 8.5937 0.793727 8.077 1.31509L8.78729 2.01901C9.11715 1.68616 9.56358 1.5 10.0281 1.5V0.5ZM23.8797 14.9854L21.2464 12.9129L20.628 13.6988L23.2612 15.7712L23.8797 14.9854ZM23.0704 3.323V15.3783H24.0704V3.323H23.0704ZM22.98 3.11839C23.0354 3.1776 23.068 3.25599 23.0707 3.339L24.0702 3.30701C24.0598 2.98271 23.9323 2.67266 23.7105 2.43544L22.98 3.11839ZM22.7725 3.01622C22.8508 3.0234 22.9248 3.05929 22.98 3.11839L23.7105 2.43544C23.4886 2.19811 23.1876 2.05005 22.8637 2.02039L22.7725 3.01622ZM10.0281 3.0183H22.8181V2.0183H10.0281V3.0183ZM9.85127 3.09261C9.89895 3.0445 9.96266 3.0183 10.0281 3.0183V2.0183C9.69452 2.0183 9.3755 2.15207 9.14099 2.3887L9.85127 3.09261ZM9.77577 3.27746C9.77577 3.20728 9.80344 3.14088 9.85127 3.09261L9.14099 2.3887C8.90663 2.62517 8.77577 2.94495 8.77577 3.27746H9.77577ZM9.77577 12.3873V3.27746H8.77577V12.3873H9.77577ZM9.85127 12.5721C9.80344 12.5239 9.77577 12.4575 9.77577 12.3873H8.77577C8.77577 12.7198 8.90663 13.0396 9.14099 13.276L9.85127 12.5721ZM10.0281 12.6464C9.96265 12.6464 9.89895 12.6202 9.85127 12.5721L9.14099 13.276C9.3755 13.5127 9.69452 13.6464 10.0281 13.6464V12.6464ZM20.4783 12.6464H10.0281V13.6464H20.4783V12.6464ZM21.2455 12.9122C21.0269 12.741 20.7577 12.6473 20.4799 12.6464L20.4767 13.6464C20.5313 13.6466 20.5849 13.665 20.6289 13.6995L21.2455 12.9122ZM16.2994 17.7012C16.2994 17.7714 16.2717 17.8378 16.2239 17.8861L16.9342 18.59C17.1685 18.3535 17.2994 18.0338 17.2994 17.7012H16.2994ZM16.2994 16.9421V17.7012H17.2994V16.9421H16.2994ZM18.3041 16.4421H16.7994V17.4421H18.3041V16.4421ZM18.8041 17.7999V16.9421H17.8041V17.7999H18.8041ZM18.6286 18.8231C18.7571 18.4916 18.8166 18.1372 18.8037 17.7818L17.8044 17.818C17.8124 18.038 17.7755 18.2571 17.6962 18.4618L18.6286 18.8231ZM18.0566 19.7092C18.3056 19.4562 18.5002 19.1545 18.6286 18.8231L17.6962 18.4618C17.6169 18.6665 17.4969 18.8523 17.3438 19.0078L18.0566 19.7092ZM17.1806 20.2937C17.5095 20.1613 17.8076 19.9622 18.0566 19.7092L17.3438 19.0078C17.1908 19.1633 17.0081 19.2851 16.8071 19.3661L17.1806 20.2937ZM16.145 20.4785C16.4992 20.489 16.8517 20.4261 17.1806 20.2937L16.8071 19.3661C16.606 19.447 16.3909 19.4854 16.1748 19.4789L16.145 20.4785ZM6.04828 20.4787H16.1599V19.4787H6.04828V20.4787ZM2.47176 23.2573L6.34636 20.3801L5.75019 19.5773L1.87558 22.4545L2.47176 23.2573ZM1.85783 23.4936C2.07863 23.4713 2.28928 23.3905 2.46841 23.2598L1.87892 22.452C1.84285 22.4783 1.80091 22.4943 1.75743 22.4987L1.85783 23.4936ZM1.21279 23.3862C1.41442 23.4788 1.63701 23.5159 1.85783 23.4936L1.75743 22.4987C1.71396 22.5031 1.66998 22.4958 1.62985 22.4774L1.21279 23.3862ZM0.691273 22.9189C0.81462 23.1167 0.990518 23.2766 1.19973 23.38L1.6429 22.4836C1.60116 22.4629 1.5653 22.4307 1.53981 22.3898L0.691273 22.9189ZM0.500016 22.2601C0.501866 22.4931 0.567949 22.7212 0.691275 22.9189L1.53981 22.3898C1.51431 22.3489 1.50037 22.3012 1.49998 22.2522L0.500016 22.2601ZM0.5 8.59143V22.2562H1.5V8.59143H0.5ZM1.30594 6.62906C0.789392 7.15027 0.5 7.85624 0.5 8.59143H1.5C1.5 8.11857 1.6862 7.66598 2.01622 7.33298L1.30594 6.62906ZM3.25705 5.81397C2.52438 5.81397 1.82263 6.1077 1.30594 6.62906L2.01622 7.33298C2.34608 7.00013 2.79251 6.81397 3.25705 6.81397V5.81397ZM6.16113 5.81397H3.25705V6.81397H6.16113V5.81397ZM6.66113 7.83227V6.31397H5.66113V7.83227H6.66113ZM3.25705 8.33227H6.16113V7.33227H3.25705V8.33227ZM3.0802 8.40658C3.12788 8.35847 3.19159 8.33227 3.25705 8.33227V7.33227C2.92345 7.33227 2.60443 7.46604 2.36992 7.70267L3.0802 8.40658ZM3.0047 8.59143C3.0047 8.52125 3.03237 8.45484 3.0802 8.40658L2.36992 7.70266C2.13556 7.93914 2.0047 8.25892 2.0047 8.59143H3.0047ZM3.0047 20.7379V8.59143H2.0047V20.7379H3.0047ZM4.74408 18.3195L2.19361 20.3464L2.81579 21.1293L5.36626 19.1024L4.74408 18.3195ZM4.82538 18.2575C4.79769 18.279 4.77826 18.294 4.7607 18.3068L5.34964 19.115C5.38197 19.0914 5.41396 19.0665 5.43902 19.0471L4.82538 18.2575ZM5.51411 17.9604C5.32336 17.9604 5.16845 18.0308 5.06802 18.0883C4.96798 18.1455 4.87825 18.2164 4.82539 18.2575L5.43902 19.0471C5.46933 19.0235 5.49267 19.0054 5.51535 18.989C5.53758 18.9729 5.55337 18.9627 5.56465 18.9563C5.57604 18.9497 5.57753 18.9501 5.5706 18.9524C5.563 18.9549 5.54315 18.9604 5.51411 18.9604V17.9604ZM16.047 17.9604H5.51411V18.9604H16.047V17.9604ZM16.2239 17.8861C16.1762 17.9342 16.1125 17.9604 16.047 17.9604V18.9604C16.3806 18.9604 16.6996 18.8266 16.9342 18.59L16.2239 17.8861Z" fill="url(#paint1_linear_119_793)" mask="url(#path-1-outside-1_119_793)"/>
    <defs>
        <linearGradient id="paint0_linear_119_793" x1="13" y1="1" x2="13" y2="23" gradientUnits="userSpaceOnUse">
            <stop stop-color="#226DFF"/>
            <stop offset="1" stop-color="#D458FF"/>
        </linearGradient>
        <linearGradient id="paint1_linear_119_793" x1="13" y1="1" x2="13" y2="23" gradientUnits="userSpaceOnUse">
            <stop stop-color="#226DFF"/>
            <stop offset="1" stop-color="#D458FF"/>
        </linearGradient>
    </defs>
</svg>
