<svg width="26" height="22" viewBox="0 0 26 22" fill="none" xmlns="http://www.w3.org/2000/svg">
    <path d="M2 7.02839L3.4344 8.18162C3.93411 8.58336 4.51499 8.87072 5.13653 9.02365C5.75808 9.17658 6.40532 9.19141 7.03315 9.06709C7.66098 8.94277 8.25427 8.6823 8.77167 8.30384C9.28907 7.92539 9.71811 7.43805 10.0289 6.87581L13 1.5L15.9711 6.87581C16.282 7.43814 16.7111 7.92553 17.2287 8.30399C17.7462 8.68246 18.3396 8.94288 18.9676 9.0671C19.5956 9.19132 20.2429 9.17634 20.8645 9.02322C21.4861 8.87009 22.067 8.5825 22.5667 8.18051L24 7.02839L22.0706 16.7252C21.9864 17.1484 21.8071 17.5466 21.5465 17.8896C21.2859 18.2326 20.9509 18.5113 20.5669 18.7044C18.2175 19.8852 15.6268 20.5 13 20.5C10.3732 20.5 7.78253 19.8852 5.4331 18.7044C5.04912 18.5113 4.71406 18.2326 4.45347 17.8896C4.19288 17.5466 4.01364 17.1484 3.9294 16.7252L2 7.02839Z" stroke="url(#paint0_linear_34_5271)" stroke-width="2.5" stroke-linecap="round" stroke-linejoin="round"/>
    <path fill-rule="evenodd" clip-rule="evenodd" d="M8.24139 13.5842C8.50736 13.0811 9.14388 12.8822 9.66309 13.1399C11.92 14.2601 14.33 14.2601 16.5869 13.1399C17.1061 12.8822 17.7426 13.0811 18.0086 13.5842C18.2746 14.0873 18.0693 14.7041 17.5501 14.9618C14.6884 16.3822 11.5616 16.3822 8.69993 14.9618C8.18072 14.7041 7.97542 14.0873 8.24139 13.5842Z" fill="url(#paint1_linear_34_5271)"/>
    <defs>
        <linearGradient id="paint0_linear_34_5271" x1="13" y1="1.5" x2="13" y2="20.5" gradientUnits="userSpaceOnUse">
            <stop stop-color="#226DFF"/>
            <stop offset="1" stop-color="#D458FF"/>
        </linearGradient>
        <linearGradient id="paint1_linear_34_5271" x1="13.125" y1="13.0271" x2="13.125" y2="16.0271" gradientUnits="userSpaceOnUse">
            <stop stop-color="#226DFF"/>
            <stop offset="1" stop-color="#D458FF"/>
        </linearGradient>
    </defs>
</svg>
