<svg width="36" height="36" viewBox="0 0 36 36" fill="none" xmlns="http://www.w3.org/2000/svg">
<path d="M36 18C36 20.234 32.5927 21.7711 31.7882 23.7131C30.9838 25.655 32.2442 29.2161 30.7276 30.7276C29.2109 32.2391 25.7216 30.953 23.7131 31.7882C21.7045 32.6234 20.234 36 18 36C15.766 36 14.2289 32.5927 12.2869 31.7882C10.345 30.9838 6.78395 32.2442 5.27242 30.7276C3.76089 29.2109 5.04697 25.7216 4.21178 23.7131C3.3766 21.7045 0 20.2289 0 18C0 15.7711 3.40734 14.2289 4.21178 12.2869C5.01623 10.345 3.75576 6.78395 5.27242 5.27242C6.78907 3.76089 10.2784 5.04697 12.2869 4.21178C14.2955 3.3766 15.766 0 18 0C20.234 0 21.7711 3.40734 23.7131 4.21178C25.655 5.01623 29.2161 3.75576 30.7276 5.27242C32.2391 6.78907 30.953 10.2784 31.7882 12.2869C32.6234 14.2955 36 15.766 36 18Z" fill="#BCA630"/>
</svg>
