<svg width="28" height="22" viewBox="0 0 28 22" fill="none" xmlns="http://www.w3.org/2000/svg">
    <path fill-rule="evenodd" clip-rule="evenodd" d="M5.25 2.532H22.75C23.4462 2.532 24.1139 2.79877 24.6062 3.27361C25.0984 3.74845 25.375 4.39248 25.375 5.064V13.504C25.375 14.1755 25.0984 14.8196 24.6062 15.2944C24.1139 15.7692 23.4462 16.036 22.75 16.036H5.25C4.55381 16.036 3.88613 15.7692 3.39384 15.2944C2.90156 14.8196 2.625 14.1755 2.625 13.504V5.064C2.625 4.39248 2.90156 3.74845 3.39384 3.27361C3.88613 2.79877 4.55381 2.532 5.25 2.532ZM4.8825 18.5562C3.55688 18.4665 2.31586 17.8952 1.40974 16.9576C0.503626 16.02 -0.000158996 14.7858 3.76409e-08 13.504V5.064C3.76409e-08 3.72095 0.553123 2.4329 1.53769 1.48321C2.52226 0.533528 3.85761 0 5.25 0H22.75C24.1424 0 25.4777 0.533528 26.4623 1.48321C27.4469 2.4329 28 3.72095 28 5.064V13.504C28.0002 14.7858 27.4964 16.02 26.5903 16.9576C25.6841 17.8952 24.4431 18.4665 23.1175 18.5562L23.9225 20.1125C24.0098 20.262 24.0647 20.427 24.0839 20.5975C24.103 20.768 24.0861 20.9405 24.034 21.1045C23.982 21.2685 23.896 21.4206 23.7811 21.5516C23.6663 21.6826 23.525 21.7896 23.366 21.8663C23.2069 21.9431 23.0334 21.9878 22.8559 21.9978C22.6783 22.0079 22.5006 21.983 22.3333 21.9248C22.1661 21.8665 22.0128 21.7761 21.8829 21.659C21.753 21.5419 21.6491 21.4005 21.5775 21.2435L20.188 18.568H7.81025L6.4225 21.2435C6.34633 21.3936 6.24013 21.5276 6.11 21.6379C5.97987 21.7482 5.8284 21.8325 5.66432 21.886C5.50024 21.9396 5.32679 21.9613 5.15398 21.9499C4.98116 21.9384 4.8124 21.8941 4.65742 21.8195C4.50245 21.7449 4.36432 21.6414 4.251 21.515C4.13768 21.3886 4.05142 21.2419 3.99719 21.0832C3.94295 20.9245 3.92182 20.7571 3.935 20.5905C3.94818 20.4239 3.99542 20.2614 4.074 20.1125L4.8825 18.5562Z" fill="url(#paint0_linear_119_58)"/>
    <defs>
        <linearGradient id="paint0_linear_119_58" x1="14" y1="0" x2="14" y2="22" gradientUnits="userSpaceOnUse">
            <stop stop-color="#226DFF"/>
            <stop offset="1" stop-color="#D458FF"/>
        </linearGradient>
    </defs>
</svg>
