<svg width="18" height="21" viewBox="0 0 18 21" fill="none" xmlns="http://www.w3.org/2000/svg">
<path fill-rule="evenodd" clip-rule="evenodd" d="M12.75 5.99911C12.75 8.06911 11.07 9.74911 9 9.74911C6.93 9.74911 5.25 8.06911 5.25 5.99911C5.25 3.92911 6.93 2.24911 9 2.24911C11.07 2.24911 12.75 3.92911 12.75 5.99911ZM13.515 9.94411C15.69 7.45411 15.435 3.65911 12.945 1.48411C10.455 -0.705887 6.66 -0.435887 4.485 2.05411C2.52 4.31911 2.52 7.67911 4.485 9.94411C1.845 10.6341 0 13.0191 0 15.7491V17.9991C0 19.6491 1.35 20.9991 3 20.9991H15C16.65 20.9991 18 19.6491 18 17.9991V15.7491C18 13.0191 16.155 10.6341 13.515 9.94411ZM9 11.9991H6C3.93 11.9991 2.25 13.6791 2.25 15.7491V17.9991C2.25 18.4191 2.58 18.7491 3 18.7491H15C15.42 18.7491 15.75 18.4191 15.75 17.9991V15.7491C15.75 13.6791 14.07 11.9991 12 11.9991H9Z" fill="url(#paint0_linear_618_672)"/>
<defs>
<linearGradient id="paint0_linear_618_672" x1="9" y1="0" x2="9" y2="20.9991" gradientUnits="userSpaceOnUse">
<stop stop-color="#226DFF"/>
<stop offset="1" stop-color="#D458FF"/>
</linearGradient>
</defs>
</svg>
